<?xml version="1.0" standalone="no"?>
<!DOCTYPE svg PUBLIC "-//W3C//DTD SVG 20010904//EN"
 "http://www.w3.org/TR/2001/REC-SVG-20010904/DTD/svg10.dtd">
<svg version="1.0" xmlns="http://www.w3.org/2000/svg"
 width="500.000000pt" height="500.000000pt" viewBox="0 0 500.000000 500.000000"
 preserveAspectRatio="xMidYMid meet">
<metadata>
Created by potrace 1.14, written by Peter Selinger 2001-2017
</metadata>
<g transform="translate(0.000000,500.000000) scale(0.100000,-0.100000)"
fill="#000000" stroke="none">
<path d="M2227 4844 c-74 -123 -84 -145 -65 -140 13 3 77 20 144 37 66 17 126
34 133 38 9 6 -4 36 -49 109 -34 56 -64 102 -68 102 -4 0 -47 -66 -95 -146z"/>
<path d="M2594 4855 c-4 -8 -14 -15 -23 -15 -29 -1 20 -30 50 -30 15 0 35 -3
44 -6 24 -9 65 -98 72 -155 4 -36 12 -52 29 -64 13 -8 24 -20 24 -25 0 -13
-34 -5 -64 15 -28 18 -187 35 -261 28 -60 -5 -189 -51 -247 -86 -112 -70 -164
-138 -188 -247 -26 -120 -30 -128 -82 -177 -28 -26 -61 -58 -73 -69 -12 -12
-31 -26 -42 -32 -26 -14 -41 1 -123 133 -87 139 -128 195 -227 308 -81 94 -87
98 -117 91 -17 -3 -33 -8 -35 -10 -2 -1 8 -27 23 -55 14 -29 26 -65 26 -80 0
-36 -26 -62 -54 -54 -22 7 -24 9 -84 92 -37 51 -119 120 -129 109 -5 -5 8 -28
95 -163 45 -71 52 -110 24 -136 -36 -33 -64 -21 -140 58 -72 75 -118 112 -128
103 -3 -3 -7 -21 -10 -40 -5 -31 0 -41 65 -116 76 -89 89 -117 70 -154 -29
-56 -71 -52 -134 12 -27 28 -52 50 -55 50 -3 0 -13 -24 -23 -54 l-17 -53 26
-58 c28 -65 26 -92 -10 -140 -68 -89 -112 -445 -104 -828 l5 -222 -102 -143
c-319 -450 -464 -779 -516 -1176 -18 -137 -7 -503 20 -641 54 -285 149 -531
294 -762 l39 -63 90 0 c82 0 89 2 82 17 -4 10 -9 115 -10 233 l-2 215 -37 90
c-40 100 -86 268 -106 390 -8 48 -13 159 -13 280 0 168 4 217 22 305 31 144
75 275 138 408 54 115 163 306 171 299 7 -8 42 -378 58 -622 9 -132 22 -298
30 -370 29 -267 29 -329 0 -445 -43 -177 -58 -324 -52 -510 3 -91 11 -193 17
-228 l12 -62 1609 0 1609 0 35 55 c287 448 399 1043 295 1560 -63 312 -209
621 -468 993 l-99 142 -2 303 c-1 200 -7 364 -19 487 -10 102 -15 196 -12 210
4 14 1 39 -6 55 -6 17 -15 54 -19 83 -7 52 -106 264 -143 305 -9 11 -28 40
-42 65 -19 36 -31 48 -52 50 -16 2 -44 19 -64 38 -28 26 -46 34 -73 34 -20 0
-88 19 -151 41 -63 23 -127 43 -143 46 -15 3 -30 9 -33 14 -10 17 -26 9 -21
-11 4 -17 2 -18 -14 -9 -19 10 -24 21 -14 31 4 3 7 38 9 79 3 61 1 70 -10 55
-9 -12 -30 -19 -70 -22 -70 -5 -95 -24 -85 -62 4 -15 6 -43 4 -63 -4 -31 0
-39 30 -65 20 -16 53 -41 75 -55 23 -16 42 -38 46 -54 9 -34 52 -90 129 -167
50 -49 58 -62 53 -85 -3 -16 -8 -48 -12 -73 -6 -44 -36 -114 -52 -124 -10 -6
-95 33 -100 46 -2 4 -15 5 -28 2 -20 -5 -24 -2 -25 17 -1 21 -2 21 -6 4 -7
-28 -23 -45 -42 -45 -12 0 -17 12 -19 51 -2 33 1 48 8 44 5 -3 10 2 10 13 0
13 -12 23 -41 32 -53 18 -62 34 -15 28 23 -2 36 0 36 8 0 6 6 17 14 23 12 10
27 0 81 -49 51 -45 73 -59 89 -55 11 2 15 2 9 -1 -7 -3 -13 -11 -13 -17 1 -7
9 -2 19 10 10 12 21 19 25 16 8 -8 2 47 -9 70 -4 10 -14 16 -22 13 -8 -3 -12
-2 -9 3 3 5 -3 11 -14 14 -11 3 -18 1 -15 -3 3 -5 1 -11 -5 -15 -5 -3 -10 -11
-10 -18 0 -6 7 -2 15 9 14 19 16 18 20 -23 2 -21 1 -21 -24 -5 -14 9 -44 29
-65 44 -42 30 -90 35 -173 19 -28 -5 -54 -4 -80 5 -21 8 -57 14 -81 14 -32 0
-41 3 -36 13 5 8 3 8 -9 -2 -24 -19 -128 2 -216 44 -85 41 -100 60 -25 33 50
-18 85 -18 58 0 -18 12 -26 59 -10 65 31 12 108 -16 140 -52 10 -11 24 -18 30
-14 6 4 6 0 -1 -9 -7 -8 -9 -19 -5 -23 4 -5 1 -5 -6 -1 -7 4 -9 13 -6 19 5 8
3 8 -7 0 -19 -18 -25 -16 -26 9 -1 11 -8 25 -15 29 -14 9 -35 0 -21 -10 5 -3
9 -11 8 -18 0 -16 -15 -30 -15 -14 0 7 -5 9 -10 6 -6 -4 -8 -11 -4 -16 9 -15
47 -28 59 -20 6 3 24 6 40 6 26 0 30 4 28 25 l-3 25 16 -25 c14 -23 14 -23 9
-3 -8 29 26 44 84 36 30 -4 41 -10 41 -23 0 -19 43 -70 60 -70 20 0 10 32 -20
60 -24 22 -27 29 -14 34 25 10 77 -18 107 -58 15 -20 34 -36 41 -36 8 0 26 16
40 35 21 27 25 39 17 53 -5 10 -10 38 -9 62 0 42 -3 47 -72 110 -64 58 -72 70
-68 93 4 22 -1 33 -23 52 -16 13 -29 32 -29 41 0 10 -12 56 -26 103 -27 90
-74 175 -105 191 -30 16 -129 12 -135 -5z m466 -330 c0 -9 -6 -12 -15 -9 -8 4
-12 10 -9 15 8 14 24 10 24 -6z m-764 -10 c-8 -8 -21 -15 -28 -15 -8 1 -6 6 6
15 26 20 42 19 22 0z m481 9 c-3 -3 -12 -4 -19 -1 -8 3 -5 6 6 6 11 1 17 -2
13 -5z m-262 -54 c19 -14 19 -14 6 3 -8 9 -12 19 -10 21 2 2 31 -5 64 -15 33
-11 66 -17 73 -14 17 6 76 -41 63 -50 -6 -3 -37 4 -70 15 -33 11 -71 20 -83
19 -23 0 -23 0 2 -12 l25 -11 -28 -4 c-33 -4 -107 39 -107 62 0 19 22 26 35
11 6 -6 19 -18 30 -25z m-220 0 c3 -5 -5 -15 -18 -21 -24 -11 -34 -41 -10 -32
7 3 10 10 6 17 -3 6 2 4 13 -5 10 -9 31 -19 47 -23 34 -8 36 -26 2 -26 -14 0
-25 -5 -25 -12 0 -17 31 -48 47 -48 8 0 11 -5 8 -10 -4 -6 -16 -8 -28 -4 -19
6 -20 5 -8 -9 7 -9 17 -14 22 -11 5 3 9 0 9 -5 0 -6 4 -11 9 -11 5 0 7 14 6
30 -3 31 6 42 37 47 24 4 12 -29 -27 -74 l-33 -38 -44 41 c-24 22 -55 48 -70
57 -16 10 -28 23 -28 31 0 7 -9 21 -20 31 -26 24 -17 36 22 28 22 -4 29 -3 24
5 -4 7 -2 12 3 12 6 0 11 6 11 14 0 21 34 33 45 16z m590 -40 c-3 -5 -16 -10
-28 -10 -18 0 -19 2 -7 10 20 13 43 13 35 0z m-55 -10 c0 -5 -5 -10 -11 -10
-5 0 -7 5 -4 10 3 6 8 10 11 10 2 0 4 -4 4 -10z m80 -5 c0 -15 -30 -75 -38
-75 -20 0 -20 14 1 46 20 30 37 44 37 29z m-215 -118 c11 -6 22 -12 25 -12 42
-8 77 -20 88 -32 12 -12 2 -13 -76 -9 -76 4 -98 9 -142 34 l-51 30 68 0 c37 0
77 -5 88 -11z m-628 -39 c-3 -8 -6 -5 -6 6 -1 11 2 17 5 13 3 -3 4 -12 1 -19z
m69 -43 c8 -19 15 -46 16 -60 2 -15 6 -21 12 -15 5 5 19 4 36 -5 24 -12 30
-12 46 0 34 26 53 19 51 -19 -2 -32 -4 -34 -33 -31 -17 1 -46 6 -64 10 -28 6
-32 5 -27 -9 9 -23 -9 -20 -33 6 -15 16 -20 18 -20 7 0 -8 5 -20 12 -27 9 -9
7 -13 -7 -18 -11 -5 -20 -3 -22 3 -3 8 -13 7 -31 -3 -32 -16 -62 -18 -62 -3 0
5 -4 7 -10 4 -6 -4 -5 -13 2 -25 10 -16 8 -22 -11 -40 -13 -11 -19 -20 -13
-20 16 0 15 -37 0 -46 -7 -5 -21 -9 -30 -9 -10 -1 -19 -4 -21 -6 -22 -28 -67
-105 -67 -112 0 -6 -3 -8 -6 -5 -3 4 1 19 9 35 8 15 14 45 13 65 0 20 3 36 8
35 5 -1 11 4 13 11 3 6 1 12 -4 12 -12 -1 -63 -48 -63 -59 0 -5 -4 -13 -10
-16 -5 -3 -10 3 -10 14 0 30 94 135 185 206 81 63 104 77 89 53 -4 -7 -3 -8 5
-4 6 4 18 2 26 -4 12 -10 15 -8 15 11 0 13 -4 41 -9 62 -11 47 -4 48 15 2z
m143 11 c9 -10 7 -17 -6 -27 -15 -12 -16 -12 -10 4 4 12 3 16 -4 11 -6 -3 -9
-14 -6 -23 2 -10 -1 -18 -8 -18 -13 0 -9 34 8 55 12 15 12 15 26 -2z m710 -25
c13 -11 28 -22 34 -24 6 -2 7 -8 3 -15 -10 -16 -30 -5 -50 28 -20 35 -17 37
13 11z m-413 -111 c15 -6 37 -22 50 -37 l22 -25 57 26 c32 14 70 26 86 26 28
0 37 -10 112 -127 4 -7 4 -13 0 -13 -5 0 -26 23 -48 51 -44 56 -36 55 -170 28
-51 -10 -66 -10 -95 3 -53 24 -127 41 -142 33 -7 -4 -2 2 12 14 23 18 42 26
77 30 6 0 24 -4 39 -9z m-331 -69 c-3 -6 -21 -18 -38 -27 l-32 -16 35 30 c34
29 49 34 35 13z m-75 -21 c0 -23 -53 -77 -90 -93 -20 -8 -22 -11 -8 -14 9 -2
20 -14 24 -26 3 -12 13 -30 22 -39 13 -16 13 -20 -2 -43 -28 -42 -126 -70
-126 -35 0 5 6 7 14 4 16 -6 66 17 84 39 10 11 9 17 -3 27 -8 7 -15 19 -15 26
0 8 -2 14 -5 14 -13 0 -65 -55 -75 -81 -7 -16 -16 -29 -20 -29 -5 0 -15 -3
-24 -6 -28 -11 -18 19 22 66 21 25 44 46 52 48 22 5 37 22 20 22 -13 0 -13 2
0 10 13 8 12 10 -2 10 -10 0 -18 2 -18 4 0 2 -3 12 -6 21 -5 13 -2 16 11 14
10 -2 35 12 57 33 22 20 50 39 62 41 11 2 22 5 24 6 1 0 2 -8 2 -19z m396 -65
c-15 -8 -34 -15 -41 -15 -12 0 -58 -13 -155 -42 -19 -6 -49 -21 -67 -34 -44
-33 -53 -30 -18 6 16 16 30 28 33 26 2 -2 20 3 40 12 38 16 195 59 222 61 8 0
2 -6 -14 -14z m134 -46 c68 -11 284 -82 305 -99 7 -6 19 -8 27 -5 8 3 26 -8
43 -27 23 -26 24 -28 5 -12 -46 38 -55 37 -19 -2 105 -113 138 -184 139 -293
l0 -54 -21 19 c-17 16 -35 19 -96 17 -49 -1 -83 -7 -99 -18 -13 -8 -24 -12
-24 -8 0 3 -12 -4 -27 -18 -23 -22 -26 -22 -20 -4 6 15 1 13 -18 -8 -14 -16
-23 -32 -20 -36 7 -12 72 -3 146 21 51 16 78 19 122 14 31 -4 57 -12 57 -19 0
-6 2 -125 5 -264 l5 -254 -45 -131 c-50 -144 -110 -270 -179 -375 -56 -85
-115 -155 -126 -148 -4 3 -13 -2 -20 -10 -7 -8 -15 -13 -19 -10 -4 2 -25 -2
-47 -10 -59 -21 -165 -19 -232 6 -88 32 -93 33 -103 18 -7 -11 -9 -10 -9 4 0
9 -5 17 -11 17 -5 0 -7 -5 -4 -10 16 -26 -68 36 -99 73 -20 23 -48 57 -63 75
-15 18 -47 44 -70 58 -54 33 -84 94 -87 183 -2 36 -6 109 -10 161 -7 91 -6 93
8 56 21 -55 39 -71 32 -27 -2 19 -10 37 -17 42 -18 11 -24 201 -9 285 6 38 16
148 20 244 9 194 21 247 76 341 36 61 86 104 178 155 67 37 201 75 241 68 11
-2 49 -9 85 -15z m-715 -49 c-3 -5 -14 -10 -23 -10 -15 0 -15 2 -2 10 20 13
33 13 25 0z m1175 -5 c7 -8 20 -15 30 -15 31 0 80 -162 55 -186 -11 -11 -14
-7 -20 24 -10 55 -43 127 -71 153 -13 12 -24 26 -24 31 0 13 16 9 30 -7z
m-1401 -38 c-5 -20 -15 -39 -20 -43 -8 -4 -8 -1 -1 12 6 11 11 24 11 29 2 19
13 46 17 43 2 -2 -1 -21 -7 -41z m1411 -34 c29 -49 18 -40 -30 25 -27 36 -33
48 -16 33 14 -14 35 -40 46 -58z m-938 35 c-9 -9 -15 -9 -24 1 -9 10 -9 12 -1
7 6 -3 15 -1 18 5 4 5 10 8 13 4 3 -3 0 -11 -6 -17z m-45 -5 c0 -9 -4 -10 -14
-2 -7 6 -13 12 -13 14 0 1 6 2 13 2 8 0 14 -6 14 -14z m-50 -28 c0 -8 -4 -12
-9 -9 -5 3 -6 10 -3 15 9 13 12 11 12 -6z m87 3 c-3 -4 -9 -8 -15 -8 -5 0 -9
4 -9 8 0 5 7 9 15 9 8 0 12 -4 9 -9z m-44 -18 c-24 -15 -36 -11 -14 4 10 8 21
12 24 10 2 -3 -2 -9 -10 -14z m-265 -47 c-5 -26 -23 -54 -63 -96 -31 -32 -57
-61 -58 -65 -1 -15 -28 -62 -34 -62 -10 0 -36 -62 -32 -75 2 -7 0 -6 -7 0 -7
7 -6 21 3 45 24 67 58 132 76 150 11 11 27 34 36 52 45 87 92 117 79 51z m225
31 c0 -8 -19 -13 -24 -6 -3 5 1 9 9 9 8 0 15 -2 15 -3z m1076 -101 c3 -26 15
-79 26 -116 20 -71 34 -302 19 -325 -4 -7 -8 31 -9 85 -1 54 -6 114 -12 133
-5 19 -10 51 -10 70 0 19 -9 68 -20 109 -22 82 -27 139 -10 109 6 -9 13 -38
16 -65z m-1136 63 c0 -2 -8 -10 -17 -17 -16 -13 -17 -12 -4 4 13 16 21 21 21
13z m-172 -88 c-2 -6 -10 -14 -16 -16 -7 -2 -10 2 -6 12 7 18 28 22 22 4z m80
-10 c-9 -13 -20 -23 -27 -23 -6 0 -18 -10 -26 -22 -9 -13 -21 -23 -27 -23 -7
0 1 13 17 30 15 16 32 27 36 24 4 -2 13 5 19 16 6 11 13 20 17 20 3 0 -1 -10
-9 -22z m-337 -78 c-23 -79 -23 -152 -1 -260 24 -115 22 -196 -6 -217 -10 -7
-14 -19 -9 -32 5 -15 2 -21 -9 -21 -9 0 -17 9 -18 23 0 12 -3 36 -5 52 -23
181 -3 425 44 535 12 27 15 -42 4 -80z m86 25 c-15 -16 -22 -11 -13 10 3 9 10
13 16 10 6 -4 5 -11 -3 -20z m213 -10 c0 -3 -15 -22 -33 -42 -52 -58 -133
-182 -168 -256 -37 -79 -47 -88 -19 -16 39 99 81 166 163 262 46 54 57 64 57
52z m57 -57 c-3 -7 -5 -2 -5 12 0 14 2 19 5 13 2 -7 2 -19 0 -25z m-170 -30
c-19 -24 -42 -58 -51 -76 -10 -19 -20 -32 -22 -29 -11 11 84 147 102 147 3 0
-10 -19 -29 -42z m160 -20 c-3 -7 -5 -2 -5 12 0 14 2 19 5 13 2 -7 2 -19 0
-25z m87 -305 c-9 -51 -19 -93 -22 -93 -10 0 6 216 19 245 l13 30 4 -44 c2
-24 -4 -86 -14 -138z m-444 -196 c0 -5 -4 -5 -10 -2 -5 3 -10 14 -10 23 0 15
2 15 10 2 5 -8 10 -19 10 -23z m1730 -27 c6 -11 8 -20 6 -20 -3 0 -10 9 -16
20 -6 11 -8 20 -6 20 3 0 10 -9 16 -20z m197 -207 c-4 -3 -1 -13 6 -22 11 -14
10 -14 -5 -2 -16 12 -16 31 -1 31 4 0 3 -3 0 -7z m-1530 -110 c-3 -10 -5 -4
-5 12 0 17 2 24 5 18 2 -7 2 -21 0 -30z m182 -258 c51 -37 71 -65 46 -65 -22
0 -104 72 -105 93 0 12 8 8 59 -28z m1188 -47 c-2 -18 -4 -6 -4 27 0 33 2 48
4 33 2 -15 2 -42 0 -60z m-60 -60 c-3 -8 -6 -5 -6 6 -1 11 2 17 5 13 3 -3 4
-12 1 -19z m70 0 c-3 -8 -6 -5 -6 6 -1 11 2 17 5 13 3 -3 4 -12 1 -19z m-1181
-15 c-5 -28 -5 -28 9 2 l13 30 0 -31 c-1 -23 -5 -31 -17 -29 -9 1 -16 7 -15
13 3 36 5 42 10 42 3 0 4 -12 0 -27z m-146 -33 c0 -42 -2 -49 -13 -39 -10 10
-11 22 -3 51 6 21 11 38 13 38 2 0 3 -23 3 -50z m201 36 c5 3 9 2 8 -3 -4 -21
2 -24 19 -12 15 13 16 12 4 -3 -14 -18 -8 -43 8 -33 5 3 30 -6 55 -20 25 -14
52 -25 60 -25 8 0 15 -4 15 -8 0 -5 6 -9 13 -10 28 -3 62 -10 62 -11 0 -5 41
-11 95 -16 57 -5 124 10 115 26 -4 5 0 6 7 4 8 -3 23 3 35 14 11 11 29 21 39
23 15 2 19 -3 17 -27 -4 -50 -61 -153 -94 -171 -18 -9 -97 -22 -194 -32 -235
-23 -270 -10 -346 131 -34 63 -37 97 -9 104 11 3 17 9 14 14 -3 5 2 10 10 10
9 1 22 2 29 3 6 0 13 8 13 16 4 40 6 45 11 32 2 -6 9 -10 14 -6z m195 -53 c-6
-6 -36 9 -36 18 0 5 9 4 20 -3 10 -7 18 -14 16 -15z m1458 -168 c73 -147 124
-291 158 -445 20 -92 22 -133 22 -335 0 -260 -12 -340 -84 -555 -43 -130 -107
-276 -117 -267 -3 4 -7 224 -8 489 -3 502 -13 676 -55 974 -11 76 -20 180 -20
229 l0 90 20 -25 c11 -14 49 -83 84 -155z m-1891 120 c-3 -9 -8 -14 -10 -11
-3 3 -2 9 2 15 9 16 15 13 8 -4z m37 -10 c-7 -9 -15 -13 -17 -11 -7 7 7 26 19
26 6 0 6 -6 -2 -15z m17 -112 c-3 -10 -5 -4 -5 12 0 17 2 24 5 18 2 -7 2 -21
0 -30z m813 -218 c0 -8 -4 -15 -10 -15 -5 0 -7 7 -4 15 4 8 8 15 10 15 2 0 4
-7 4 -15z m-195 -75 c-37 -39 -45 -31 -9 9 15 17 30 29 32 26 3 -3 -7 -19 -23
-35z m972 -512 c-3 -7 -5 -2 -5 12 0 14 2 19 5 13 2 -7 2 -19 0 -25z m10 -50
c-3 -8 -6 -5 -6 6 -1 11 2 17 5 13 3 -3 4 -12 1 -19z m57 -308 c5 -61 4 -59
-14 30 -29 144 -33 183 -11 105 11 -38 22 -99 25 -135z m33 -192 c-3 -8 -6 -5
-6 6 -1 11 2 17 5 13 3 -3 4 -12 1 -19z"/>
<path d="M2277 4413 c-4 -3 -7 -11 -7 -17 0 -6 5 -5 12 2 6 6 9 14 7 17 -3 3
-9 2 -12 -2z"/>
<path d="M2252 4363 c8 -7 24 -15 36 -18 18 -3 21 -1 13 13 -5 9 -21 17 -36
18 -22 1 -24 -1 -13 -13z"/>
<path d="M2244 3399 c-50 -19 -103 -63 -91 -75 3 -3 25 1 49 9 89 32 206 28
357 -13 40 -11 43 -9 46 23 4 35 -37 55 -141 67 -123 14 -161 12 -220 -11z"/>
<path d="M2993 3301 c-38 -10 -81 -36 -105 -65 -30 -36 -20 -42 15 -8 52 50
132 75 181 56 33 -13 14 -21 -24 -10 -34 9 -46 7 -77 -9 -50 -26 -103 -74
-103 -91 0 -10 12 -14 43 -13 41 2 41 2 9 8 l-34 6 24 21 c12 12 33 27 46 33
20 10 22 9 22 -11 0 -41 11 -65 36 -79 19 -10 27 -10 36 -1 7 7 18 12 25 12 8
0 30 15 49 34 31 30 32 34 15 39 -14 3 -17 11 -14 29 3 18 -1 27 -20 35 -37
17 -88 23 -124 14z m57 -81 c0 -5 -2 -10 -4 -10 -3 0 -8 5 -11 10 -3 6 -1 10
4 10 6 0 11 -4 11 -10z m44 -37 c-20 -31 -34 -27 -21 6 8 21 15 27 21 21 7 -7
7 -16 0 -27z"/>
<path d="M2295 3264 c-27 -14 -58 -35 -68 -45 -17 -18 -17 -19 1 -19 10 0 27
10 38 21 46 52 142 73 209 45 48 -21 44 -28 -4 -9 -55 22 -118 10 -182 -33
-28 -19 -55 -34 -61 -34 -5 0 -6 -4 -3 -10 3 -5 17 -10 29 -10 13 0 29 -7 36
-15 6 -8 21 -17 33 -21 12 -4 27 -13 34 -20 13 -13 47 -9 39 5 -3 4 11 5 30 3
56 -7 39 5 -36 23 -83 20 -102 37 -68 59 13 9 38 19 56 22 31 6 32 6 32 -29 0
-22 6 -39 16 -45 24 -14 72 -2 77 19 7 25 24 24 32 -1 3 -11 13 -20 21 -20 18
0 18 14 -1 30 -21 17 -12 24 14 11 23 -13 32 -3 25 25 -9 36 -81 66 -169 71
-72 4 -85 2 -130 -23z m170 -55 c-7 -11 -35 -12 -35 -1 0 4 9 8 20 9 11 1 18
-2 15 -8z"/>
<path d="M3145 3240 c-3 -5 1 -10 9 -10 9 0 16 5 16 10 0 6 -4 10 -9 10 -6 0
-13 -4 -16 -10z"/>
<path d="M2551 2924 c-45 -58 -10 -139 50 -115 23 9 23 10 -6 10 -17 1 -36 6
-43 13 -20 20 -14 63 13 92 13 14 20 26 15 26 -5 0 -18 -12 -29 -26z"/>
<path d="M2585 2852 l-30 -17 63 -3 c34 -2 62 -6 62 -11 0 -4 18 -17 40 -30
40 -22 55 -19 23 5 -16 12 -15 13 12 13 37 -1 94 10 117 22 31 16 44 9 19 -11
-13 -11 -18 -20 -12 -20 7 0 24 12 39 27 l27 28 -41 8 c-36 8 -46 6 -80 -16
-46 -29 -67 -29 -116 1 -42 26 -82 27 -123 4z"/>
<path d="M2604 2642 c2 -4 -3 -8 -12 -9 -25 -1 -132 -47 -132 -55 0 -4 15 -14
33 -22 17 -9 48 -28 67 -43 19 -15 29 -21 23 -12 -7 9 -9 19 -5 23 4 4 3 7 -3
6 -19 -4 -35 0 -35 9 0 6 12 6 32 0 17 -5 34 -6 37 -4 2 3 -1 5 -7 5 -22 0
-12 28 11 32 12 2 76 5 142 7 105 2 117 0 106 -13 -24 -29 -97 -49 -151 -42
-28 4 -58 9 -68 12 -9 3 -4 -2 12 -11 46 -27 113 -26 171 4 28 14 52 26 55 26
23 7 80 37 85 46 9 14 4 18 -26 21 -13 2 -28 8 -32 13 -5 6 -7 1 -4 -11 4 -18
-1 -21 -47 -24 -98 -6 -254 -5 -250 2 2 3 -2 9 -8 11 -8 3 -6 6 5 6 9 1 17 6
17 12 0 5 5 7 12 3 7 -4 8 -3 4 4 -4 7 -14 12 -22 12 -8 0 -13 -4 -10 -8z"/>
<path d="M2790 2409 c-19 -5 -62 -7 -95 -4 -57 5 -59 5 -35 -9 38 -23 132 -21
161 4 26 21 22 22 -31 9z"/>
<path d="M1624 3216 c-3 -8 -4 -23 -2 -33 3 -11 6 -6 9 15 6 34 2 42 -7 18z"/>
<path d="M2280 2182 c6 -13 14 -21 18 -18 3 4 -2 14 -12 24 -18 16 -18 16 -6
-6z"/>
<path d="M3756 4328 c9 -16 13 -28 9 -28 -5 0 -1 -8 8 -17 8 -10 27 -40 41
-67 14 -27 26 -43 26 -36 0 18 -52 110 -62 110 -5 0 -7 4 -4 9 3 5 -3 20 -15
32 l-20 24 17 -27z"/>
<path d="M2530 4232 c0 -5 7 -9 15 -9 8 0 12 4 9 9 -3 4 -9 8 -15 8 -5 0 -9
-4 -9 -8z"/>
<path d="M3050 4138 c0 -10 29 -9 55 2 15 6 11 8 -17 7 -21 -1 -38 -5 -38 -9z"/>
<path d="M3103 4075 c0 -8 4 -12 9 -9 4 3 8 9 8 15 0 5 -4 9 -8 9 -5 0 -9 -7
-9 -15z"/>
<path d="M3041 3974 c0 -11 3 -14 6 -6 3 7 2 16 -1 19 -3 4 -6 -2 -5 -13z"/>
</g>
</svg>
