<?xml version="1.0" standalone="no"?>
<!DOCTYPE svg PUBLIC "-//W3C//DTD SVG 20010904//EN"
 "http://www.w3.org/TR/2001/REC-SVG-20010904/DTD/svg10.dtd">
<svg version="1.0" xmlns="http://www.w3.org/2000/svg"
 width="2250.000000pt" height="2250.000000pt" viewBox="0 0 2250.000000 2250.000000"
 preserveAspectRatio="xMidYMid meet">
<metadata>
Created by potrace 1.14, written by Peter Selinger 2001-2017
</metadata>
<g transform="translate(0.000000,2250.000000) scale(0.100000,-0.100000)"
fill="#000000" stroke="none">
<path d="M3788 19435 c-84 -31 -185 -125 -217 -202 -11 -26 -19 -31 -58 -36
-25 -3 -80 -3 -122 0 -98 7 -173 -9 -271 -58 -128 -64 -217 -157 -266 -278
l-22 -54 -82 -24 c-122 -35 -221 -90 -315 -175 -42 -38 -59 -47 -105 -52 -132
-17 -229 -94 -411 -326 -125 -159 -155 -214 -176 -324 -31 -163 -8 -308 121
-757 96 -334 141 -453 261 -694 66 -134 87 -185 95 -240 6 -38 35 -200 65
-360 109 -580 105 -547 185 -1530 115 -1406 168 -1934 221 -2195 102 -501 266
-933 620 -1635 97 -192 193 -394 214 -448 81 -210 220 -369 610 -695 83 -69
225 -190 316 -270 189 -164 283 -233 486 -359 l142 -88 61 -124 c34 -68 77
-164 96 -213 83 -219 194 -339 744 -805 124 -105 257 -218 295 -252 263 -230
1060 -682 2250 -1276 343 -171 439 -223 470 -256 46 -46 158 -120 263 -173 63
-32 72 -40 72 -64 0 -15 5 -106 10 -202 5 -96 17 -434 26 -750 13 -473 14
-629 5 -880 -16 -412 -36 -735 -69 -1100 l-27 -305 1 -940 c0 -517 4 -1020 9
-1118 l7 -177 4548 0 4547 0 6 143 c11 221 8 722 -4 843 -15 159 -43 287 -104
474 -108 335 -142 501 -330 1625 -178 1061 -184 1114 -142 1176 48 71 156 124
324 158 404 83 1262 205 1309 187 15 -6 113 -186 215 -401 97 -202 174 -407
206 -549 23 -101 25 -124 19 -261 -6 -165 -10 -195 -90 -790 -110 -822 -146
-1228 -146 -1666 0 -384 25 -629 87 -846 l26 -93 1318 0 1319 0 0 204 c0 397
-42 1043 -146 2248 -7 73 -6 78 19 108 92 109 74 322 -68 795 -101 339 -132
530 -120 745 16 281 -54 913 -136 1234 -70 276 -350 753 -786 1339 -40 54 -73
104 -73 111 0 28 -68 112 -124 153 -79 59 -169 103 -293 147 -117 40 -168 65
-315 152 -59 35 -139 79 -177 99 -63 31 -74 41 -97 88 -112 222 -386 643 -629
967 -39 52 -83 121 -99 152 -53 112 -176 193 -426 283 -89 32 -172 73 -290
142 -91 53 -213 118 -272 144 -121 53 -126 57 -258 178 -115 106 -157 135
-233 156 -53 15 -71 29 -206 158 -110 106 -169 155 -234 192 -98 57 -95 50
-73 180 8 44 17 129 21 189 6 83 13 122 31 161 13 28 27 80 30 114 5 45 12 65
25 72 10 5 40 28 66 50 111 96 204 233 243 359 12 36 43 108 69 160 119 234
157 434 105 558 -36 88 -141 152 -248 152 -48 0 -54 2 -58 23 -2 12 1 106 8
207 7 102 17 287 23 413 25 531 16 589 -154 947 -46 96 -95 214 -108 262 -32
111 -56 164 -112 248 -56 84 -199 222 -302 290 -222 147 -580 280 -938 349
l-89 17 -13 100 c-17 139 -52 241 -153 455 -49 102 -99 221 -111 265 -44 162
-115 281 -237 401 -206 201 -527 355 -957 458 -546 131 -942 121 -1375 -37
-192 -70 -380 -172 -580 -316 -58 -42 -131 -89 -163 -104 -115 -56 -146 -103
-318 -483 -50 -110 -76 -153 -122 -205 -84 -93 -201 -272 -237 -363 -78 -196
-60 -372 53 -519 l36 -47 0 -265 1 -266 -28 0 c-44 0 -126 -44 -160 -86 -52
-63 -67 -122 -66 -259 1 -85 8 -151 24 -225 26 -123 97 -347 145 -462 19 -44
44 -128 56 -187 99 -497 179 -721 399 -1116 186 -334 228 -441 294 -745 l33
-155 -65 -35 c-36 -19 -90 -59 -121 -90 l-56 -55 -80 8 c-100 10 -245 -6 -322
-35 -35 -13 -58 -17 -60 -11 -10 28 -78 132 -106 161 -17 18 -55 44 -84 59
l-53 25 -260 -12 c-179 -9 -415 -11 -753 -7 -689 9 -874 23 -987 76 -123 59
-279 64 -428 15 -41 -13 -84 -24 -96 -24 -12 0 -45 18 -75 40 -82 62 -156 80
-366 91 -248 13 -336 29 -405 76 -45 30 -165 77 -305 118 -60 18 -150 51 -200
73 -118 52 -246 93 -493 161 l-202 56 -199 403 c-206 417 -394 830 -504 1107
-68 172 -69 176 -151 490 -31 116 -132 486 -225 822 -94 337 -175 641 -182
675 -22 123 9 281 97 488 63 150 117 238 249 401 130 162 191 274 226 408 30
120 23 304 -19 486 -17 72 -35 181 -41 243 -7 61 -26 165 -43 230 -21 79 -33
155 -38 232 -10 163 -47 248 -176 409 -202 250 -395 312 -570 181 -44 -33
-123 -133 -136 -171 -3 -8 -49 -13 -154 -14 -124 -2 -159 -5 -207 -23 -167
-61 -285 -168 -343 -311 l-22 -55 -77 -22 c-99 -30 -183 -73 -273 -140 l-73
-55 32 63 c45 90 88 152 201 291 114 141 186 274 219 406 30 120 23 287 -19
466 -17 72 -36 179 -42 239 -12 122 -29 207 -61 311 -14 47 -21 93 -19 138 3
136 -37 244 -147 392 -128 172 -288 286 -402 284 -31 0 -73 -7 -93 -14z m-156
-416 c41 -21 85 -75 136 -168 l32 -58 -34 -37 c-19 -20 -37 -36 -40 -36 -25 0
-180 67 -207 89 -32 27 -34 33 -33 84 1 30 9 78 19 107 l17 52 36 -7 c20 -4
53 -15 74 -26z m-324 -101 c-24 -91 -19 -190 12 -273 26 -67 99 -146 232 -250
88 -68 113 -109 103 -163 -17 -91 -116 -210 -191 -231 -22 -6 -60 -11 -85 -11
l-46 0 -61 138 c-65 148 -130 310 -153 382 -7 25 -33 74 -56 109 -41 61 -42
65 -33 108 27 117 109 203 237 249 60 21 61 20 41 -58z m142 -124 c19 -31 70
-62 152 -94 122 -47 139 -48 186 -6 l39 36 16 -53 c9 -28 21 -74 27 -102 6
-27 25 -97 42 -154 29 -100 30 -105 12 -118 -23 -17 -115 -17 -136 0 -8 6 -29
32 -46 57 -36 53 -74 89 -162 155 -150 112 -197 203 -175 342 l8 48 12 -45 c6
-25 17 -54 25 -66z m-483 -227 c27 -41 44 -78 89 -202 20 -55 70 -176 111
-269 l74 -169 -12 -56 c-6 -31 -19 -72 -29 -92 -23 -44 -91 -106 -125 -115
-67 -17 -208 61 -262 144 -46 71 -135 236 -224 415 l-79 159 19 24 c77 98 259
192 376 193 34 1 43 -4 62 -32z m-433 -474 c69 -137 148 -282 176 -323 51 -77
58 -102 39 -143 -15 -34 -45 -49 -113 -57 -113 -14 -185 25 -375 203 -110 104
-224 187 -237 174 -6 -6 29 -78 58 -119 l19 -28 -68 0 c-92 0 -98 5 -84 69 16
75 38 110 163 266 138 170 180 205 248 205 l49 0 125 -247z m1464 42 c47 -162
65 -284 59 -390 -6 -111 -23 -158 -116 -313 -111 -185 -234 -458 -306 -679 -5
-16 -85 -56 -161 -81 -32 -11 -103 -26 -157 -32 -53 -7 -100 -16 -102 -20 -8
-13 70 -39 144 -50 63 -9 127 -4 205 16 27 6 29 5 22 -17 -19 -68 -46 -261
-51 -366 -9 -164 11 -297 75 -506 29 -92 51 -170 49 -172 -10 -9 -39 -8 -92 4
-72 16 -132 4 -225 -43 -37 -19 -83 -39 -103 -44 l-36 -10 -12 66 c-30 160
-107 315 -210 420 -36 36 -66 61 -68 56 -4 -11 24 -104 112 -373 44 -137 53
-176 43 -182 -7 -5 -120 -9 -250 -9 l-238 0 -4 23 c-10 43 -146 792 -146 800
0 4 15 7 33 7 88 1 217 73 328 182 110 109 129 148 38 77 -92 -72 -252 -139
-331 -139 -80 0 -97 15 -170 156 -125 243 -163 345 -273 729 -70 246 -95 350
-109 457 l-7 46 58 -24 c38 -15 78 -24 116 -24 57 0 60 -1 132 -64 155 -136
241 -179 351 -178 88 1 139 14 185 45 30 20 72 71 81 99 3 7 14 5 34 -5 l31
-16 -39 -78 c-57 -116 -73 -188 -72 -323 1 -63 6 -126 12 -140 10 -23 11 -20
11 23 3 202 143 465 264 495 92 24 179 116 216 230 12 34 21 69 21 77 0 11 12
15 48 15 106 0 204 47 272 130 39 47 90 136 90 156 0 26 17 14 32 -23 39 -94
37 -93 37 -21 l1 67 40 11 c22 6 52 21 67 35 16 13 31 21 34 17 3 -4 20 -56
37 -117z m-148 -3230 c0 -2 24 -89 54 -192 148 -513 307 -1123 390 -1493 63
-283 93 -455 117 -660 40 -349 138 -660 313 -995 143 -274 297 -488 492 -682
l132 -131 -101 -47 c-141 -66 -315 -134 -489 -191 -82 -27 -148 -52 -148 -55
0 -15 177 -31 265 -25 197 14 353 72 579 215 19 12 28 9 89 -28 208 -127 413
-179 857 -217 152 -14 317 -18 744 -18 l548 -1 -6 -140 c-4 -77 -16 -277 -26
-445 -74 -1151 -93 -1729 -64 -1943 l7 -46 -60 19 c-105 33 -214 43 -396 37
l-172 -5 -370 188 c-834 423 -1481 784 -1755 980 -52 37 -168 130 -256 206
-88 77 -243 210 -345 296 -217 184 -336 298 -413 390 -63 76 -78 104 -131 238
-21 52 -113 244 -205 425 -92 182 -193 389 -225 460 -256 574 -379 1000 -434
1505 -44 399 -148 1570 -186 2100 -3 41 -8 89 -11 107 l-5 31 105 1 c58 1 201
12 318 25 337 38 357 40 407 22 76 -28 148 -21 232 21 76 38 149 62 149 48z
m8393 -752 l188 -6 -45 -46 c-51 -52 -56 -67 -26 -76 37 -12 224 -141 283
-195 l58 -53 -49 -27 c-64 -37 -79 -55 -61 -76 19 -23 94 -59 179 -86 98 -30
298 -33 400 -4 118 32 159 55 181 99 30 58 105 134 146 148 29 9 37 8 55 -8
12 -10 30 -37 40 -61 20 -45 58 -222 58 -271 0 -27 -3 -29 -45 -33 -25 -2 -45
-2 -45 -1 0 19 -44 222 -51 233 -5 9 -9 -26 -9 -95 0 -162 9 -150 -133 -169
-216 -28 -388 -45 -587 -56 -341 -18 -534 -41 -646 -75 l-49 -15 -32 36 c-35
39 -95 173 -96 214 -1 14 0 164 1 334 l2 309 48 -7 c26 -3 132 -9 235 -13z
m567 -438 c0 -26 7 -59 15 -75 9 -17 12 -30 8 -31 -41 -6 -112 14 -172 48
l-44 26 29 15 c30 16 143 61 157 61 4 1 7 -19 7 -44z m360 22 c61 -25 144 -76
137 -83 -7 -7 -169 -34 -205 -34 l-33 0 17 32 c10 20 14 45 11 70 -6 45 -2 46
73 15z m1577 -15 c43 -16 102 -43 132 -59 62 -36 69 -32 -106 -58 -150 -22
-145 -23 -127 22 15 34 14 65 -1 106 -10 24 10 22 102 -11z m-380 -26 c-2 -18
2 -50 9 -72 7 -21 11 -40 8 -43 -8 -8 -126 15 -168 33 -47 20 -45 23 55 76 93
49 102 50 96 6z m-188 -96 c89 -35 248 -62 361 -63 121 0 185 10 327 54 96 30
105 31 144 19 68 -23 125 -65 154 -114 23 -39 27 -58 28 -133 1 -49 -2 -114
-6 -145 l-8 -58 -57 0 c-81 0 -163 20 -352 84 -178 59 -532 152 -695 182 -55
9 -101 19 -103 20 -6 4 29 67 55 102 23 31 78 72 95 72 4 0 30 -9 57 -20z
m-2376 -205 l17 -65 -29 -41 c-40 -54 -56 -133 -41 -202 14 -67 43 -127 76
-158 l27 -24 -7 50 c-12 94 -19 320 -9 310 5 -5 24 -46 42 -90 18 -44 37 -84
42 -89 5 -6 9 -27 9 -47 0 -80 -66 -368 -80 -352 -12 12 -58 146 -91 263 -52
186 -71 352 -49 429 10 36 46 81 65 81 6 0 19 -29 28 -65z m1046 -2808 c194
-143 369 -243 501 -285 59 -19 251 -50 540 -88 143 -18 407 -18 538 2 57 8
159 31 226 51 199 60 296 48 398 -46 50 -46 71 -89 124 -251 79 -247 143 -368
256 -484 43 -44 76 -82 74 -84 -2 -2 -39 -10 -82 -18 -133 -24 -541 -28 -1054
-10 -256 9 -537 18 -625 20 -133 3 -175 8 -252 30 -155 43 -280 93 -468 186
-263 131 -351 204 -349 293 8 368 5 407 -72 741 -19 83 -34 154 -34 158 0 5
42 -26 93 -69 50 -42 134 -108 186 -146z"/>
<path d="M19369 1978 c-35 -29 -122 -104 -194 -167 -373 -328 -566 -413 -750
-332 -27 12 -50 19 -53 16 -13 -13 60 -83 116 -112 82 -41 153 -50 253 -30
213 42 432 213 593 465 52 79 111 200 103 208 -2 3 -33 -19 -68 -48z"/>
</g>
</svg>
